<svg width="430" height="124" viewBox="0 0 430 124" fill="none" xmlns="http://www.w3.org/2000/svg" role="img" aria-label="فريش إير للمكيفات المستعملة بالرياض">
  <defs>
    <linearGradient id="faMark" x1="18" y1="14" x2="122" y2="108" gradientUnits="userSpaceOnUse">
      <stop stop-color="#84F8FF"/>
      <stop offset=".46" stop-color="#20BDEB"/>
      <stop offset="1" stop-color="#94EA46"/>
    </linearGradient>
    <linearGradient id="faWind" x1="18" y1="30" x2="124" y2="78" gradientUnits="userSpaceOnUse">
      <stop stop-color="#E8FFFF"/>
      <stop offset=".55" stop-color="#66ECFF"/>
      <stop offset="1" stop-color="#79F2C3"/>
    </linearGradient>
    <linearGradient id="faText" x1="148" y1="18" x2="410" y2="104" gradientUnits="userSpaceOnUse">
      <stop stop-color="#FFFFFF"/>
      <stop offset=".58" stop-color="#EAFDFF"/>
      <stop offset="1" stop-color="#9AF044"/>
    </linearGradient>
    <filter id="faGlow" x="-10" y="-10" width="158" height="144" color-interpolation-filters="sRGB">
      <feDropShadow dx="0" dy="12" stdDeviation="11" flood-color="#21D8FF" flood-opacity=".32"/>
      <feDropShadow dx="0" dy="3" stdDeviation="4" flood-color="#8EE23F" flood-opacity=".22"/>
    </filter>
    <filter id="faTextGlow" x="120" y="0" width="310" height="124" color-interpolation-filters="sRGB">
      <feDropShadow dx="0" dy="2" stdDeviation="1.1" flood-color="#001219" flood-opacity=".82"/>
      <feDropShadow dx="0" dy="12" stdDeviation="14" flood-color="#21D8FF" flood-opacity=".14"/>
    </filter>
    <style>
      .wordmark{font-family:"Tajawal","Cairo","Segoe UI",Arial,sans-serif;font-weight:900;letter-spacing:0}
      .tagline{font-family:"Tajawal","Cairo","Segoe UI",Arial,sans-serif;font-weight:800;letter-spacing:0}
      .enline{font-family:"Segoe UI",Arial,sans-serif;font-weight:900;letter-spacing:2px}
    </style>
  </defs>
  <g filter="url(#faGlow)">
    <path d="M70 15c29.8 0 54 24.2 54 54 0 13.4-4.9 25.8-13.1 35.3" stroke="url(#faMark)" stroke-width="9.5" stroke-linecap="round"/>
    <path d="M32.7 104.3A54 54 0 0 1 70 15" stroke="url(#faMark)" stroke-width="9.5" stroke-linecap="round"/>
    <path d="M22 52c17.7-17.1 39.9-19.1 62.9-3.1 16.1 11.2 32.7 13.2 50.4 1.8-13.2 22.5-37 30.7-60.5 18.8C57.1 60.5 43.6 50.4 22 52Z" fill="url(#faWind)" opacity=".98"/>
    <path d="M17 73.8c20.2-14.5 42.3-15.1 64.4 0 17.1 11.7 33.9 12.5 52.5.9-15.2 21.6-39.8 29.3-63.6 17C51.7 82 39.1 72.2 17 73.8Z" fill="url(#faWind)" opacity=".78"/>
    <path d="M44 40h50M70 19.5v51M50.2 29.2l39.6 39.6M89.8 29.2 50.2 68.8" stroke="#082437" stroke-width="4.4" stroke-linecap="round" opacity=".58"/>
    <path d="M44 40h50M70 19.5v51M50.2 29.2l39.6 39.6M89.8 29.2 50.2 68.8" stroke="#F8FFFF" stroke-width="2.45" stroke-linecap="round" opacity=".9"/>
    <circle cx="118" cy="29" r="3.5" fill="#8EE23F"/>
    <circle cx="132" cy="39" r="2.5" fill="#84F8FF"/>
  </g>
  <g filter="url(#faTextGlow)">
    <text class="wordmark" x="408" y="52" direction="rtl" text-anchor="end" font-size="44" fill="url(#faText)">فريش إير</text>
    <text class="tagline" x="408" y="82" direction="rtl" text-anchor="end" font-size="16" fill="#86F3FF">للمكيفات المستعملة بالرياض</text>
    <path d="M214 98h98" stroke="#99E644" stroke-width="3.5" stroke-linecap="round"/>
    <path d="M324 98h54" stroke="#2FE3F5" stroke-width="3.5" stroke-linecap="round"/>
  </g>
</svg>
